<svg xmlns="http://www.w3.org/2000/svg" xmlns:xlink="http://www.w3.org/1999/xlink" width="1010" height="645" viewBox="0 0 1010 645">
  <defs>
    <clipPath id="clip-path">
      <rect width="1010" height="645" fill="none"/>
    </clipPath>
  </defs>
  <g id="Repeat_Grid_61" data-name="Repeat Grid 61" clip-path="url(#clip-path)">
    <g transform="translate(-190 -12855)">
      <circle id="Ellipse_380" data-name="Ellipse 380" cx="20" cy="20" r="20" transform="translate(190 12855)" fill="#3e94db"/>
    </g>
    <g transform="translate(-130 -12855)">
      <circle id="Ellipse_380-2" data-name="Ellipse 380" cx="20" cy="20" r="20" transform="translate(190 12855)" fill="#3e94db"/>
    </g>
    <g transform="translate(-70 -12855)">
      <circle id="Ellipse_380-3" data-name="Ellipse 380" cx="20" cy="20" r="20" transform="translate(190 12855)" fill="#3e94db"/>
    </g>
    <g transform="translate(-10 -12855)">
      <circle id="Ellipse_380-4" data-name="Ellipse 380" cx="20" cy="20" r="20" transform="translate(190 12855)" fill="#3e94db"/>
    </g>
    <g transform="translate(50 -12855)">
      <circle id="Ellipse_380-5" data-name="Ellipse 380" cx="20" cy="20" r="20" transform="translate(190 12855)" fill="#3e94db"/>
    </g>
    <g transform="translate(110 -12855)">
      <circle id="Ellipse_380-6" data-name="Ellipse 380" cx="20" cy="20" r="20" transform="translate(190 12855)" fill="#3e94db"/>
    </g>
    <g transform="translate(170 -12855)">
      <circle id="Ellipse_380-7" data-name="Ellipse 380" cx="20" cy="20" r="20" transform="translate(190 12855)" fill="#3e94db"/>
    </g>
    <g transform="translate(230 -12855)">
      <circle id="Ellipse_380-8" data-name="Ellipse 380" cx="20" cy="20" r="20" transform="translate(190 12855)" fill="#3e94db"/>
    </g>
    <g transform="translate(290 -12855)">
      <circle id="Ellipse_380-9" data-name="Ellipse 380" cx="20" cy="20" r="20" transform="translate(190 12855)" fill="#3e94db"/>
    </g>
    <g transform="translate(350 -12855)">
      <circle id="Ellipse_380-10" data-name="Ellipse 380" cx="20" cy="20" r="20" transform="translate(190 12855)" fill="#3e94db"/>
    </g>
    <g transform="translate(410 -12855)">
      <circle id="Ellipse_380-11" data-name="Ellipse 380" cx="20" cy="20" r="20" transform="translate(190 12855)" fill="#3e94db"/>
    </g>
    <g transform="translate(470 -12855)">
      <circle id="Ellipse_380-12" data-name="Ellipse 380" cx="20" cy="20" r="20" transform="translate(190 12855)" fill="#3e94db"/>
    </g>
    <g transform="translate(530 -12855)">
      <circle id="Ellipse_380-13" data-name="Ellipse 380" cx="20" cy="20" r="20" transform="translate(190 12855)" fill="#3e94db"/>
    </g>
    <g transform="translate(590 -12855)">
      <circle id="Ellipse_380-14" data-name="Ellipse 380" cx="20" cy="20" r="20" transform="translate(190 12855)" fill="#3e94db"/>
    </g>
    <g transform="translate(650 -12855)">
      <circle id="Ellipse_380-15" data-name="Ellipse 380" cx="20" cy="20" r="20" transform="translate(190 12855)" fill="#3e94db"/>
    </g>
    <g transform="translate(710 -12855)">
      <circle id="Ellipse_380-16" data-name="Ellipse 380" cx="20" cy="20" r="20" transform="translate(190 12855)" fill="#3e94db"/>
    </g>
    <g transform="translate(770 -12855)">
      <circle id="Ellipse_380-17" data-name="Ellipse 380" cx="20" cy="20" r="20" transform="translate(190 12855)" fill="#3e94db"/>
    </g>
    <g transform="translate(-190 -12795)">
      <circle id="Ellipse_380-18" data-name="Ellipse 380" cx="20" cy="20" r="20" transform="translate(190 12855)" fill="#3e94db"/>
    </g>
    <g transform="translate(-130 -12795)">
      <circle id="Ellipse_380-19" data-name="Ellipse 380" cx="20" cy="20" r="20" transform="translate(190 12855)" fill="#3e94db"/>
    </g>
    <g transform="translate(-70 -12795)">
      <circle id="Ellipse_380-20" data-name="Ellipse 380" cx="20" cy="20" r="20" transform="translate(190 12855)" fill="#3e94db"/>
    </g>
    <g transform="translate(-10 -12795)">
      <circle id="Ellipse_380-21" data-name="Ellipse 380" cx="20" cy="20" r="20" transform="translate(190 12855)" fill="#3e94db"/>
    </g>
    <g transform="translate(50 -12795)">
      <circle id="Ellipse_380-22" data-name="Ellipse 380" cx="20" cy="20" r="20" transform="translate(190 12855)" fill="#3e94db"/>
    </g>
    <g transform="translate(110 -12795)">
      <circle id="Ellipse_380-23" data-name="Ellipse 380" cx="20" cy="20" r="20" transform="translate(190 12855)" fill="#3e94db"/>
    </g>
    <g transform="translate(170 -12795)">
      <circle id="Ellipse_380-24" data-name="Ellipse 380" cx="20" cy="20" r="20" transform="translate(190 12855)" fill="#3e94db"/>
    </g>
    <g transform="translate(230 -12795)">
      <circle id="Ellipse_380-25" data-name="Ellipse 380" cx="20" cy="20" r="20" transform="translate(190 12855)" fill="#3e94db"/>
    </g>
    <g transform="translate(290 -12795)">
      <circle id="Ellipse_380-26" data-name="Ellipse 380" cx="20" cy="20" r="20" transform="translate(190 12855)" fill="#3e94db"/>
    </g>
    <g transform="translate(350 -12795)">
      <circle id="Ellipse_380-27" data-name="Ellipse 380" cx="20" cy="20" r="20" transform="translate(190 12855)" fill="#3e94db"/>
    </g>
    <g transform="translate(410 -12795)">
      <circle id="Ellipse_380-28" data-name="Ellipse 380" cx="20" cy="20" r="20" transform="translate(190 12855)" fill="#3e94db"/>
    </g>
    <g transform="translate(470 -12795)">
      <circle id="Ellipse_380-29" data-name="Ellipse 380" cx="20" cy="20" r="20" transform="translate(190 12855)" fill="#3e94db"/>
    </g>
    <g transform="translate(530 -12795)">
      <circle id="Ellipse_380-30" data-name="Ellipse 380" cx="20" cy="20" r="20" transform="translate(190 12855)" fill="#3e94db"/>
    </g>
    <g transform="translate(590 -12795)">
      <circle id="Ellipse_380-31" data-name="Ellipse 380" cx="20" cy="20" r="20" transform="translate(190 12855)" fill="#3e94db"/>
    </g>
    <g transform="translate(650 -12795)">
      <circle id="Ellipse_380-32" data-name="Ellipse 380" cx="20" cy="20" r="20" transform="translate(190 12855)" fill="#3e94db"/>
    </g>
    <g transform="translate(710 -12795)">
      <circle id="Ellipse_380-33" data-name="Ellipse 380" cx="20" cy="20" r="20" transform="translate(190 12855)" fill="#3e94db"/>
    </g>
    <g transform="translate(770 -12795)">
      <circle id="Ellipse_380-34" data-name="Ellipse 380" cx="20" cy="20" r="20" transform="translate(190 12855)" fill="#3e94db"/>
    </g>
    <g transform="translate(-190 -12735)">
      <circle id="Ellipse_380-35" data-name="Ellipse 380" cx="20" cy="20" r="20" transform="translate(190 12855)" fill="#3e94db"/>
    </g>
    <g transform="translate(-130 -12735)">
      <circle id="Ellipse_380-36" data-name="Ellipse 380" cx="20" cy="20" r="20" transform="translate(190 12855)" fill="#3e94db"/>
    </g>
    <g transform="translate(-70 -12735)">
      <circle id="Ellipse_380-37" data-name="Ellipse 380" cx="20" cy="20" r="20" transform="translate(190 12855)" fill="#3e94db"/>
    </g>
    <g transform="translate(-10 -12735)">
      <circle id="Ellipse_380-38" data-name="Ellipse 380" cx="20" cy="20" r="20" transform="translate(190 12855)" fill="#3e94db"/>
    </g>
    <g transform="translate(50 -12735)">
      <circle id="Ellipse_380-39" data-name="Ellipse 380" cx="20" cy="20" r="20" transform="translate(190 12855)" fill="#3e94db"/>
    </g>
    <g transform="translate(110 -12735)">
      <circle id="Ellipse_380-40" data-name="Ellipse 380" cx="20" cy="20" r="20" transform="translate(190 12855)" fill="#3e94db"/>
    </g>
    <g transform="translate(170 -12735)">
      <circle id="Ellipse_380-41" data-name="Ellipse 380" cx="20" cy="20" r="20" transform="translate(190 12855)" fill="#3e94db"/>
    </g>
    <g transform="translate(230 -12735)">
      <circle id="Ellipse_380-42" data-name="Ellipse 380" cx="20" cy="20" r="20" transform="translate(190 12855)" fill="#3e94db"/>
    </g>
    <g transform="translate(290 -12735)">
      <circle id="Ellipse_380-43" data-name="Ellipse 380" cx="20" cy="20" r="20" transform="translate(190 12855)" fill="#3e94db"/>
    </g>
    <g transform="translate(350 -12735)">
      <circle id="Ellipse_380-44" data-name="Ellipse 380" cx="20" cy="20" r="20" transform="translate(190 12855)" fill="#3e94db"/>
    </g>
    <g transform="translate(410 -12735)">
      <circle id="Ellipse_380-45" data-name="Ellipse 380" cx="20" cy="20" r="20" transform="translate(190 12855)" fill="#3e94db"/>
    </g>
    <g transform="translate(470 -12735)">
      <circle id="Ellipse_380-46" data-name="Ellipse 380" cx="20" cy="20" r="20" transform="translate(190 12855)" fill="#3e94db"/>
    </g>
    <g transform="translate(530 -12735)">
      <circle id="Ellipse_380-47" data-name="Ellipse 380" cx="20" cy="20" r="20" transform="translate(190 12855)" fill="#3e94db"/>
    </g>
    <g transform="translate(590 -12735)">
      <circle id="Ellipse_380-48" data-name="Ellipse 380" cx="20" cy="20" r="20" transform="translate(190 12855)" fill="#3e94db"/>
    </g>
    <g transform="translate(650 -12735)">
      <circle id="Ellipse_380-49" data-name="Ellipse 380" cx="20" cy="20" r="20" transform="translate(190 12855)" fill="#3e94db"/>
    </g>
    <g transform="translate(710 -12735)">
      <circle id="Ellipse_380-50" data-name="Ellipse 380" cx="20" cy="20" r="20" transform="translate(190 12855)" fill="#3e94db"/>
    </g>
    <g transform="translate(770 -12735)">
      <circle id="Ellipse_380-51" data-name="Ellipse 380" cx="20" cy="20" r="20" transform="translate(190 12855)" fill="#3e94db"/>
    </g>
    <g transform="translate(-190 -12675)">
      <circle id="Ellipse_380-52" data-name="Ellipse 380" cx="20" cy="20" r="20" transform="translate(190 12855)" fill="#3e94db"/>
    </g>
    <g transform="translate(-130 -12675)">
      <circle id="Ellipse_380-53" data-name="Ellipse 380" cx="20" cy="20" r="20" transform="translate(190 12855)" fill="#3e94db"/>
    </g>
    <g transform="translate(-70 -12675)">
      <circle id="Ellipse_380-54" data-name="Ellipse 380" cx="20" cy="20" r="20" transform="translate(190 12855)" fill="#3e94db"/>
    </g>
    <g transform="translate(-10 -12675)">
      <circle id="Ellipse_380-55" data-name="Ellipse 380" cx="20" cy="20" r="20" transform="translate(190 12855)" fill="#3e94db"/>
    </g>
    <g transform="translate(50 -12675)">
      <circle id="Ellipse_380-56" data-name="Ellipse 380" cx="20" cy="20" r="20" transform="translate(190 12855)" fill="#3e94db"/>
    </g>
    <g transform="translate(110 -12675)">
      <circle id="Ellipse_380-57" data-name="Ellipse 380" cx="20" cy="20" r="20" transform="translate(190 12855)" fill="#3e94db"/>
    </g>
    <g transform="translate(170 -12675)">
      <circle id="Ellipse_380-58" data-name="Ellipse 380" cx="20" cy="20" r="20" transform="translate(190 12855)" fill="#3e94db"/>
    </g>
    <g transform="translate(230 -12675)">
      <circle id="Ellipse_380-59" data-name="Ellipse 380" cx="20" cy="20" r="20" transform="translate(190 12855)" fill="#3e94db"/>
    </g>
    <g transform="translate(290 -12675)">
      <circle id="Ellipse_380-60" data-name="Ellipse 380" cx="20" cy="20" r="20" transform="translate(190 12855)" fill="#3e94db"/>
    </g>
    <g transform="translate(350 -12675)">
      <circle id="Ellipse_380-61" data-name="Ellipse 380" cx="20" cy="20" r="20" transform="translate(190 12855)" fill="#3e94db"/>
    </g>
    <g transform="translate(410 -12675)">
      <circle id="Ellipse_380-62" data-name="Ellipse 380" cx="20" cy="20" r="20" transform="translate(190 12855)" fill="#3e94db"/>
    </g>
    <g transform="translate(470 -12675)">
      <circle id="Ellipse_380-63" data-name="Ellipse 380" cx="20" cy="20" r="20" transform="translate(190 12855)" fill="#3e94db"/>
    </g>
    <g transform="translate(530 -12675)">
      <circle id="Ellipse_380-64" data-name="Ellipse 380" cx="20" cy="20" r="20" transform="translate(190 12855)" fill="#3e94db"/>
    </g>
    <g transform="translate(590 -12675)">
      <circle id="Ellipse_380-65" data-name="Ellipse 380" cx="20" cy="20" r="20" transform="translate(190 12855)" fill="#3e94db"/>
    </g>
    <g transform="translate(650 -12675)">
      <circle id="Ellipse_380-66" data-name="Ellipse 380" cx="20" cy="20" r="20" transform="translate(190 12855)" fill="#3e94db"/>
    </g>
    <g transform="translate(710 -12675)">
      <circle id="Ellipse_380-67" data-name="Ellipse 380" cx="20" cy="20" r="20" transform="translate(190 12855)" fill="#3e94db"/>
    </g>
    <g transform="translate(770 -12675)">
      <circle id="Ellipse_380-68" data-name="Ellipse 380" cx="20" cy="20" r="20" transform="translate(190 12855)" fill="#3e94db"/>
    </g>
    <g transform="translate(-190 -12615)">
      <circle id="Ellipse_380-69" data-name="Ellipse 380" cx="20" cy="20" r="20" transform="translate(190 12855)" fill="#3e94db"/>
    </g>
    <g transform="translate(-130 -12615)">
      <circle id="Ellipse_380-70" data-name="Ellipse 380" cx="20" cy="20" r="20" transform="translate(190 12855)" fill="#3e94db"/>
    </g>
    <g transform="translate(-70 -12615)">
      <circle id="Ellipse_380-71" data-name="Ellipse 380" cx="20" cy="20" r="20" transform="translate(190 12855)" fill="#3e94db"/>
    </g>
    <g transform="translate(-10 -12615)">
      <circle id="Ellipse_380-72" data-name="Ellipse 380" cx="20" cy="20" r="20" transform="translate(190 12855)" fill="#3e94db"/>
    </g>
    <g transform="translate(50 -12615)">
      <circle id="Ellipse_380-73" data-name="Ellipse 380" cx="20" cy="20" r="20" transform="translate(190 12855)" fill="#3e94db"/>
    </g>
    <g transform="translate(110 -12615)">
      <circle id="Ellipse_380-74" data-name="Ellipse 380" cx="20" cy="20" r="20" transform="translate(190 12855)" fill="#3e94db"/>
    </g>
    <g transform="translate(170 -12615)">
      <circle id="Ellipse_380-75" data-name="Ellipse 380" cx="20" cy="20" r="20" transform="translate(190 12855)" fill="#3e94db"/>
    </g>
    <g transform="translate(230 -12615)">
      <circle id="Ellipse_380-76" data-name="Ellipse 380" cx="20" cy="20" r="20" transform="translate(190 12855)" fill="#3e94db"/>
    </g>
    <g transform="translate(290 -12615)">
      <circle id="Ellipse_380-77" data-name="Ellipse 380" cx="20" cy="20" r="20" transform="translate(190 12855)" fill="#3e94db"/>
    </g>
    <g transform="translate(350 -12615)">
      <circle id="Ellipse_380-78" data-name="Ellipse 380" cx="20" cy="20" r="20" transform="translate(190 12855)" fill="#3e94db"/>
    </g>
    <g transform="translate(410 -12615)">
      <circle id="Ellipse_380-79" data-name="Ellipse 380" cx="20" cy="20" r="20" transform="translate(190 12855)" fill="#3e94db"/>
    </g>
    <g transform="translate(470 -12615)">
      <circle id="Ellipse_380-80" data-name="Ellipse 380" cx="20" cy="20" r="20" transform="translate(190 12855)" fill="#3e94db"/>
    </g>
    <g transform="translate(530 -12615)">
      <circle id="Ellipse_380-81" data-name="Ellipse 380" cx="20" cy="20" r="20" transform="translate(190 12855)" fill="#3e94db"/>
    </g>
    <g transform="translate(590 -12615)">
      <circle id="Ellipse_380-82" data-name="Ellipse 380" cx="20" cy="20" r="20" transform="translate(190 12855)" fill="#3e94db"/>
    </g>
    <g transform="translate(650 -12615)">
      <circle id="Ellipse_380-83" data-name="Ellipse 380" cx="20" cy="20" r="20" transform="translate(190 12855)" fill="#3e94db"/>
    </g>
    <g transform="translate(710 -12615)">
      <circle id="Ellipse_380-84" data-name="Ellipse 380" cx="20" cy="20" r="20" transform="translate(190 12855)" fill="#3e94db"/>
    </g>
    <g transform="translate(770 -12615)">
      <circle id="Ellipse_380-85" data-name="Ellipse 380" cx="20" cy="20" r="20" transform="translate(190 12855)" fill="#3e94db"/>
    </g>
    <g transform="translate(-190 -12555)">
      <circle id="Ellipse_380-86" data-name="Ellipse 380" cx="20" cy="20" r="20" transform="translate(190 12855)" fill="#3e94db"/>
    </g>
    <g transform="translate(-130 -12555)">
      <circle id="Ellipse_380-87" data-name="Ellipse 380" cx="20" cy="20" r="20" transform="translate(190 12855)" fill="#3e94db"/>
    </g>
    <g transform="translate(-70 -12555)">
      <circle id="Ellipse_380-88" data-name="Ellipse 380" cx="20" cy="20" r="20" transform="translate(190 12855)" fill="#3e94db"/>
    </g>
    <g transform="translate(-10 -12555)">
      <circle id="Ellipse_380-89" data-name="Ellipse 380" cx="20" cy="20" r="20" transform="translate(190 12855)" fill="#3e94db"/>
    </g>
    <g transform="translate(50 -12555)">
      <circle id="Ellipse_380-90" data-name="Ellipse 380" cx="20" cy="20" r="20" transform="translate(190 12855)" fill="#3e94db"/>
    </g>
    <g transform="translate(110 -12555)">
      <circle id="Ellipse_380-91" data-name="Ellipse 380" cx="20" cy="20" r="20" transform="translate(190 12855)" fill="#3e94db"/>
    </g>
    <g transform="translate(170 -12555)">
      <circle id="Ellipse_380-92" data-name="Ellipse 380" cx="20" cy="20" r="20" transform="translate(190 12855)" fill="#3e94db"/>
    </g>
    <g transform="translate(230 -12555)">
      <circle id="Ellipse_380-93" data-name="Ellipse 380" cx="20" cy="20" r="20" transform="translate(190 12855)" fill="#3e94db"/>
    </g>
    <g transform="translate(290 -12555)">
      <circle id="Ellipse_380-94" data-name="Ellipse 380" cx="20" cy="20" r="20" transform="translate(190 12855)" fill="#3e94db"/>
    </g>
    <g transform="translate(350 -12555)">
      <circle id="Ellipse_380-95" data-name="Ellipse 380" cx="20" cy="20" r="20" transform="translate(190 12855)" fill="#3e94db"/>
    </g>
    <g transform="translate(410 -12555)">
      <circle id="Ellipse_380-96" data-name="Ellipse 380" cx="20" cy="20" r="20" transform="translate(190 12855)" fill="#3e94db"/>
    </g>
    <g transform="translate(470 -12555)">
      <circle id="Ellipse_380-97" data-name="Ellipse 380" cx="20" cy="20" r="20" transform="translate(190 12855)" fill="#3e94db"/>
    </g>
    <g transform="translate(530 -12555)">
      <circle id="Ellipse_380-98" data-name="Ellipse 380" cx="20" cy="20" r="20" transform="translate(190 12855)" fill="#3e94db"/>
    </g>
    <g transform="translate(590 -12555)">
      <circle id="Ellipse_380-99" data-name="Ellipse 380" cx="20" cy="20" r="20" transform="translate(190 12855)" fill="#3e94db"/>
    </g>
    <g transform="translate(650 -12555)">
      <circle id="Ellipse_380-100" data-name="Ellipse 380" cx="20" cy="20" r="20" transform="translate(190 12855)" fill="#3e94db"/>
    </g>
    <g transform="translate(710 -12555)">
      <circle id="Ellipse_380-101" data-name="Ellipse 380" cx="20" cy="20" r="20" transform="translate(190 12855)" fill="#3e94db"/>
    </g>
    <g transform="translate(770 -12555)">
      <circle id="Ellipse_380-102" data-name="Ellipse 380" cx="20" cy="20" r="20" transform="translate(190 12855)" fill="#3e94db"/>
    </g>
    <g transform="translate(-190 -12495)">
      <circle id="Ellipse_380-103" data-name="Ellipse 380" cx="20" cy="20" r="20" transform="translate(190 12855)" fill="#3e94db"/>
    </g>
    <g transform="translate(-130 -12495)">
      <circle id="Ellipse_380-104" data-name="Ellipse 380" cx="20" cy="20" r="20" transform="translate(190 12855)" fill="#3e94db"/>
    </g>
    <g transform="translate(-70 -12495)">
      <circle id="Ellipse_380-105" data-name="Ellipse 380" cx="20" cy="20" r="20" transform="translate(190 12855)" fill="#3e94db"/>
    </g>
    <g transform="translate(-10 -12495)">
      <circle id="Ellipse_380-106" data-name="Ellipse 380" cx="20" cy="20" r="20" transform="translate(190 12855)" fill="#3e94db"/>
    </g>
    <g transform="translate(50 -12495)">
      <circle id="Ellipse_380-107" data-name="Ellipse 380" cx="20" cy="20" r="20" transform="translate(190 12855)" fill="#3e94db"/>
    </g>
    <g transform="translate(110 -12495)">
      <circle id="Ellipse_380-108" data-name="Ellipse 380" cx="20" cy="20" r="20" transform="translate(190 12855)" fill="#3e94db"/>
    </g>
    <g transform="translate(170 -12495)">
      <circle id="Ellipse_380-109" data-name="Ellipse 380" cx="20" cy="20" r="20" transform="translate(190 12855)" fill="#3e94db"/>
    </g>
    <g transform="translate(230 -12495)">
      <circle id="Ellipse_380-110" data-name="Ellipse 380" cx="20" cy="20" r="20" transform="translate(190 12855)" fill="#3e94db"/>
    </g>
    <g transform="translate(290 -12495)">
      <circle id="Ellipse_380-111" data-name="Ellipse 380" cx="20" cy="20" r="20" transform="translate(190 12855)" fill="#3e94db"/>
    </g>
    <g transform="translate(350 -12495)">
      <circle id="Ellipse_380-112" data-name="Ellipse 380" cx="20" cy="20" r="20" transform="translate(190 12855)" fill="#3e94db"/>
    </g>
    <g transform="translate(410 -12495)">
      <circle id="Ellipse_380-113" data-name="Ellipse 380" cx="20" cy="20" r="20" transform="translate(190 12855)" fill="#3e94db"/>
    </g>
    <g transform="translate(470 -12495)">
      <circle id="Ellipse_380-114" data-name="Ellipse 380" cx="20" cy="20" r="20" transform="translate(190 12855)" fill="#3e94db"/>
    </g>
    <g transform="translate(530 -12495)">
      <circle id="Ellipse_380-115" data-name="Ellipse 380" cx="20" cy="20" r="20" transform="translate(190 12855)" fill="#3e94db"/>
    </g>
    <g transform="translate(590 -12495)">
      <circle id="Ellipse_380-116" data-name="Ellipse 380" cx="20" cy="20" r="20" transform="translate(190 12855)" fill="#3e94db"/>
    </g>
    <g transform="translate(650 -12495)">
      <circle id="Ellipse_380-117" data-name="Ellipse 380" cx="20" cy="20" r="20" transform="translate(190 12855)" fill="#3e94db"/>
    </g>
    <g transform="translate(710 -12495)">
      <circle id="Ellipse_380-118" data-name="Ellipse 380" cx="20" cy="20" r="20" transform="translate(190 12855)" fill="#3e94db"/>
    </g>
    <g transform="translate(770 -12495)">
      <circle id="Ellipse_380-119" data-name="Ellipse 380" cx="20" cy="20" r="20" transform="translate(190 12855)" fill="#3e94db"/>
    </g>
    <g transform="translate(-190 -12435)">
      <circle id="Ellipse_380-120" data-name="Ellipse 380" cx="20" cy="20" r="20" transform="translate(190 12855)" fill="#3e94db"/>
    </g>
    <g transform="translate(-130 -12435)">
      <circle id="Ellipse_380-121" data-name="Ellipse 380" cx="20" cy="20" r="20" transform="translate(190 12855)" fill="#3e94db"/>
    </g>
    <g transform="translate(-70 -12435)">
      <circle id="Ellipse_380-122" data-name="Ellipse 380" cx="20" cy="20" r="20" transform="translate(190 12855)" fill="#3e94db"/>
    </g>
    <g transform="translate(-10 -12435)">
      <circle id="Ellipse_380-123" data-name="Ellipse 380" cx="20" cy="20" r="20" transform="translate(190 12855)" fill="#3e94db"/>
    </g>
    <g transform="translate(50 -12435)">
      <circle id="Ellipse_380-124" data-name="Ellipse 380" cx="20" cy="20" r="20" transform="translate(190 12855)" fill="#3e94db"/>
    </g>
    <g transform="translate(110 -12435)">
      <circle id="Ellipse_380-125" data-name="Ellipse 380" cx="20" cy="20" r="20" transform="translate(190 12855)" fill="#3e94db"/>
    </g>
    <g transform="translate(170 -12435)">
      <circle id="Ellipse_380-126" data-name="Ellipse 380" cx="20" cy="20" r="20" transform="translate(190 12855)" fill="#3e94db"/>
    </g>
    <g transform="translate(230 -12435)">
      <circle id="Ellipse_380-127" data-name="Ellipse 380" cx="20" cy="20" r="20" transform="translate(190 12855)" fill="#3e94db"/>
    </g>
    <g transform="translate(290 -12435)">
      <circle id="Ellipse_380-128" data-name="Ellipse 380" cx="20" cy="20" r="20" transform="translate(190 12855)" fill="#3e94db"/>
    </g>
    <g transform="translate(350 -12435)">
      <circle id="Ellipse_380-129" data-name="Ellipse 380" cx="20" cy="20" r="20" transform="translate(190 12855)" fill="#3e94db"/>
    </g>
    <g transform="translate(410 -12435)">
      <circle id="Ellipse_380-130" data-name="Ellipse 380" cx="20" cy="20" r="20" transform="translate(190 12855)" fill="#3e94db"/>
    </g>
    <g transform="translate(470 -12435)">
      <circle id="Ellipse_380-131" data-name="Ellipse 380" cx="20" cy="20" r="20" transform="translate(190 12855)" fill="#3e94db"/>
    </g>
    <g transform="translate(530 -12435)">
      <circle id="Ellipse_380-132" data-name="Ellipse 380" cx="20" cy="20" r="20" transform="translate(190 12855)" fill="#3e94db"/>
    </g>
    <g transform="translate(590 -12435)">
      <circle id="Ellipse_380-133" data-name="Ellipse 380" cx="20" cy="20" r="20" transform="translate(190 12855)" fill="#3e94db"/>
    </g>
    <g transform="translate(650 -12435)">
      <circle id="Ellipse_380-134" data-name="Ellipse 380" cx="20" cy="20" r="20" transform="translate(190 12855)" fill="#3e94db"/>
    </g>
    <g transform="translate(710 -12435)">
      <circle id="Ellipse_380-135" data-name="Ellipse 380" cx="20" cy="20" r="20" transform="translate(190 12855)" fill="#3e94db"/>
    </g>
    <g transform="translate(770 -12435)">
      <circle id="Ellipse_380-136" data-name="Ellipse 380" cx="20" cy="20" r="20" transform="translate(190 12855)" fill="#3e94db"/>
    </g>
    <g transform="translate(-190 -12375)">
      <circle id="Ellipse_380-137" data-name="Ellipse 380" cx="20" cy="20" r="20" transform="translate(190 12855)" fill="#3e94db"/>
    </g>
    <g transform="translate(-130 -12375)">
      <circle id="Ellipse_380-138" data-name="Ellipse 380" cx="20" cy="20" r="20" transform="translate(190 12855)" fill="#3e94db"/>
    </g>
    <g transform="translate(-70 -12375)">
      <circle id="Ellipse_380-139" data-name="Ellipse 380" cx="20" cy="20" r="20" transform="translate(190 12855)" fill="#3e94db"/>
    </g>
    <g transform="translate(-10 -12375)">
      <circle id="Ellipse_380-140" data-name="Ellipse 380" cx="20" cy="20" r="20" transform="translate(190 12855)" fill="#3e94db"/>
    </g>
    <g transform="translate(50 -12375)">
      <circle id="Ellipse_380-141" data-name="Ellipse 380" cx="20" cy="20" r="20" transform="translate(190 12855)" fill="#3e94db"/>
    </g>
    <g transform="translate(110 -12375)">
      <circle id="Ellipse_380-142" data-name="Ellipse 380" cx="20" cy="20" r="20" transform="translate(190 12855)" fill="#3e94db"/>
    </g>
    <g transform="translate(170 -12375)">
      <circle id="Ellipse_380-143" data-name="Ellipse 380" cx="20" cy="20" r="20" transform="translate(190 12855)" fill="#3e94db"/>
    </g>
    <g transform="translate(230 -12375)">
      <circle id="Ellipse_380-144" data-name="Ellipse 380" cx="20" cy="20" r="20" transform="translate(190 12855)" fill="#3e94db"/>
    </g>
    <g transform="translate(290 -12375)">
      <circle id="Ellipse_380-145" data-name="Ellipse 380" cx="20" cy="20" r="20" transform="translate(190 12855)" fill="#3e94db"/>
    </g>
    <g transform="translate(350 -12375)">
      <circle id="Ellipse_380-146" data-name="Ellipse 380" cx="20" cy="20" r="20" transform="translate(190 12855)" fill="#3e94db"/>
    </g>
    <g transform="translate(410 -12375)">
      <circle id="Ellipse_380-147" data-name="Ellipse 380" cx="20" cy="20" r="20" transform="translate(190 12855)" fill="#3e94db"/>
    </g>
    <g transform="translate(470 -12375)">
      <circle id="Ellipse_380-148" data-name="Ellipse 380" cx="20" cy="20" r="20" transform="translate(190 12855)" fill="#3e94db"/>
    </g>
    <g transform="translate(530 -12375)">
      <circle id="Ellipse_380-149" data-name="Ellipse 380" cx="20" cy="20" r="20" transform="translate(190 12855)" fill="#3e94db"/>
    </g>
    <g transform="translate(590 -12375)">
      <circle id="Ellipse_380-150" data-name="Ellipse 380" cx="20" cy="20" r="20" transform="translate(190 12855)" fill="#3e94db"/>
    </g>
    <g transform="translate(650 -12375)">
      <circle id="Ellipse_380-151" data-name="Ellipse 380" cx="20" cy="20" r="20" transform="translate(190 12855)" fill="#3e94db"/>
    </g>
    <g transform="translate(710 -12375)">
      <circle id="Ellipse_380-152" data-name="Ellipse 380" cx="20" cy="20" r="20" transform="translate(190 12855)" fill="#3e94db"/>
    </g>
    <g transform="translate(770 -12375)">
      <circle id="Ellipse_380-153" data-name="Ellipse 380" cx="20" cy="20" r="20" transform="translate(190 12855)" fill="#3e94db"/>
    </g>
    <g transform="translate(-190 -12315)">
      <circle id="Ellipse_380-154" data-name="Ellipse 380" cx="20" cy="20" r="20" transform="translate(190 12855)" fill="#3e94db"/>
    </g>
    <g transform="translate(-130 -12315)">
      <circle id="Ellipse_380-155" data-name="Ellipse 380" cx="20" cy="20" r="20" transform="translate(190 12855)" fill="#3e94db"/>
    </g>
    <g transform="translate(-70 -12315)">
      <circle id="Ellipse_380-156" data-name="Ellipse 380" cx="20" cy="20" r="20" transform="translate(190 12855)" fill="#3e94db"/>
    </g>
    <g transform="translate(-10 -12315)">
      <circle id="Ellipse_380-157" data-name="Ellipse 380" cx="20" cy="20" r="20" transform="translate(190 12855)" fill="#3e94db"/>
    </g>
    <g transform="translate(50 -12315)">
      <circle id="Ellipse_380-158" data-name="Ellipse 380" cx="20" cy="20" r="20" transform="translate(190 12855)" fill="#3e94db"/>
    </g>
    <g transform="translate(110 -12315)">
      <circle id="Ellipse_380-159" data-name="Ellipse 380" cx="20" cy="20" r="20" transform="translate(190 12855)" fill="#3e94db"/>
    </g>
    <g transform="translate(170 -12315)">
      <circle id="Ellipse_380-160" data-name="Ellipse 380" cx="20" cy="20" r="20" transform="translate(190 12855)" fill="#3e94db"/>
    </g>
    <g transform="translate(230 -12315)">
      <circle id="Ellipse_380-161" data-name="Ellipse 380" cx="20" cy="20" r="20" transform="translate(190 12855)" fill="#3e94db"/>
    </g>
    <g transform="translate(290 -12315)">
      <circle id="Ellipse_380-162" data-name="Ellipse 380" cx="20" cy="20" r="20" transform="translate(190 12855)" fill="#3e94db"/>
    </g>
    <g transform="translate(350 -12315)">
      <circle id="Ellipse_380-163" data-name="Ellipse 380" cx="20" cy="20" r="20" transform="translate(190 12855)" fill="#3e94db"/>
    </g>
    <g transform="translate(410 -12315)">
      <circle id="Ellipse_380-164" data-name="Ellipse 380" cx="20" cy="20" r="20" transform="translate(190 12855)" fill="#3e94db"/>
    </g>
    <g transform="translate(470 -12315)">
      <circle id="Ellipse_380-165" data-name="Ellipse 380" cx="20" cy="20" r="20" transform="translate(190 12855)" fill="#3e94db"/>
    </g>
    <g transform="translate(530 -12315)">
      <circle id="Ellipse_380-166" data-name="Ellipse 380" cx="20" cy="20" r="20" transform="translate(190 12855)" fill="#3e94db"/>
    </g>
    <g transform="translate(590 -12315)">
      <circle id="Ellipse_380-167" data-name="Ellipse 380" cx="20" cy="20" r="20" transform="translate(190 12855)" fill="#3e94db"/>
    </g>
    <g transform="translate(650 -12315)">
      <circle id="Ellipse_380-168" data-name="Ellipse 380" cx="20" cy="20" r="20" transform="translate(190 12855)" fill="#3e94db"/>
    </g>
    <g transform="translate(710 -12315)">
      <circle id="Ellipse_380-169" data-name="Ellipse 380" cx="20" cy="20" r="20" transform="translate(190 12855)" fill="#3e94db"/>
    </g>
    <g transform="translate(770 -12315)">
      <circle id="Ellipse_380-170" data-name="Ellipse 380" cx="20" cy="20" r="20" transform="translate(190 12855)" fill="#3e94db"/>
    </g>
    <g transform="translate(-190 -12255)">
      <circle id="Ellipse_380-171" data-name="Ellipse 380" cx="20" cy="20" r="20" transform="translate(190 12855)" fill="#3e94db"/>
    </g>
    <g transform="translate(-130 -12255)">
      <circle id="Ellipse_380-172" data-name="Ellipse 380" cx="20" cy="20" r="20" transform="translate(190 12855)" fill="#3e94db"/>
    </g>
    <g transform="translate(-70 -12255)">
      <circle id="Ellipse_380-173" data-name="Ellipse 380" cx="20" cy="20" r="20" transform="translate(190 12855)" fill="#3e94db"/>
    </g>
    <g transform="translate(-10 -12255)">
      <circle id="Ellipse_380-174" data-name="Ellipse 380" cx="20" cy="20" r="20" transform="translate(190 12855)" fill="#3e94db"/>
    </g>
    <g transform="translate(50 -12255)">
      <circle id="Ellipse_380-175" data-name="Ellipse 380" cx="20" cy="20" r="20" transform="translate(190 12855)" fill="#3e94db"/>
    </g>
    <g transform="translate(110 -12255)">
      <circle id="Ellipse_380-176" data-name="Ellipse 380" cx="20" cy="20" r="20" transform="translate(190 12855)" fill="#3e94db"/>
    </g>
    <g transform="translate(170 -12255)">
      <circle id="Ellipse_380-177" data-name="Ellipse 380" cx="20" cy="20" r="20" transform="translate(190 12855)" fill="#3e94db"/>
    </g>
    <g transform="translate(230 -12255)">
      <circle id="Ellipse_380-178" data-name="Ellipse 380" cx="20" cy="20" r="20" transform="translate(190 12855)" fill="#3e94db"/>
    </g>
    <g transform="translate(290 -12255)">
      <circle id="Ellipse_380-179" data-name="Ellipse 380" cx="20" cy="20" r="20" transform="translate(190 12855)" fill="#3e94db"/>
    </g>
    <g transform="translate(350 -12255)">
      <circle id="Ellipse_380-180" data-name="Ellipse 380" cx="20" cy="20" r="20" transform="translate(190 12855)" fill="#3e94db"/>
    </g>
    <g transform="translate(410 -12255)">
      <circle id="Ellipse_380-181" data-name="Ellipse 380" cx="20" cy="20" r="20" transform="translate(190 12855)" fill="#3e94db"/>
    </g>
    <g transform="translate(470 -12255)">
      <circle id="Ellipse_380-182" data-name="Ellipse 380" cx="20" cy="20" r="20" transform="translate(190 12855)" fill="#3e94db"/>
    </g>
    <g transform="translate(530 -12255)">
      <circle id="Ellipse_380-183" data-name="Ellipse 380" cx="20" cy="20" r="20" transform="translate(190 12855)" fill="#3e94db"/>
    </g>
    <g transform="translate(590 -12255)">
      <circle id="Ellipse_380-184" data-name="Ellipse 380" cx="20" cy="20" r="20" transform="translate(190 12855)" fill="#3e94db"/>
    </g>
    <g transform="translate(650 -12255)">
      <circle id="Ellipse_380-185" data-name="Ellipse 380" cx="20" cy="20" r="20" transform="translate(190 12855)" fill="#3e94db"/>
    </g>
    <g transform="translate(710 -12255)">
      <circle id="Ellipse_380-186" data-name="Ellipse 380" cx="20" cy="20" r="20" transform="translate(190 12855)" fill="#3e94db"/>
    </g>
    <g transform="translate(770 -12255)">
      <circle id="Ellipse_380-187" data-name="Ellipse 380" cx="20" cy="20" r="20" transform="translate(190 12855)" fill="#3e94db"/>
    </g>
  </g>
</svg>
