<svg xmlns="http://www.w3.org/2000/svg" width="20.002" height="19.507" viewBox="0 0 20.002 19.507">
  <path id="github" d="M12,2.247A10,10,0,0,0,8.838,21.734c.5.088.687-.212.687-.475,0-.237-.013-1.025-.013-1.862C7,19.859,6.35,18.784,6.15,18.222a3.636,3.636,0,0,0-1.025-1.413c-.35-.187-.85-.65-.013-.662A2,2,0,0,1,6.65,17.172,2.137,2.137,0,0,0,9.562,18a2.1,2.1,0,0,1,.638-1.338c-2.225-.25-4.55-1.113-4.55-4.938A3.892,3.892,0,0,1,6.675,9.034a3.594,3.594,0,0,1,.1-2.65s.837-.263,2.75,1.025a9.427,9.427,0,0,1,5,0c1.912-1.3,2.75-1.025,2.75-1.025a3.593,3.593,0,0,1,.1,2.65A3.869,3.869,0,0,1,18.4,11.722c0,3.837-2.338,4.688-4.562,4.938a2.368,2.368,0,0,1,.675,1.85c0,1.338-.013,2.412-.013,2.75,0,.263.188.575.688.475A10.005,10.005,0,0,0,12,2.247Z" transform="translate(-1.999 -2.247)" fill="#999"/>
</svg>
