<svg xmlns="http://www.w3.org/2000/svg" width="100" height="100" viewBox="0 0 100 100">
  <g id="Group_5744" data-name="Group 5744" transform="translate(-17208 18780)">
    <g id="Group_5743" data-name="Group 5743">
      <g id="Ellipse_379" data-name="Ellipse 379" transform="translate(17208 -18780)" fill="none" stroke="#000" stroke-width="6">
        <circle cx="50" cy="50" r="50" stroke="none"/>
        <circle cx="50" cy="50" r="47" fill="none"/>
      </g>
      <path id="reload" d="M52.125,39.811H39.447a2.8,2.8,0,1,0,0,5.6h6.717A22.39,22.39,0,0,1,7.6,29.987a2.8,2.8,0,1,0-5.6,0A27.987,27.987,0,0,0,49.243,50.222v4.954a2.8,2.8,0,0,0,5.6,0V42.582A2.8,2.8,0,0,0,52.125,39.811ZM29.987,2A27.987,27.987,0,0,0,10.732,9.752V4.8a2.8,2.8,0,1,0-5.6,0V17.393a2.8,2.8,0,0,0,2.8,2.8H20.528a2.8,2.8,0,0,0,0-5.6H13.811A22.39,22.39,0,0,1,52.377,29.987a2.8,2.8,0,1,0,5.6,0A27.987,27.987,0,0,0,29.987,2Z" transform="translate(17228.012 -18759.988)" fill="#999"/>
    </g>
  </g>
</svg>
