<?xml version="1.0" encoding="UTF-8"?><svg xmlns="http://www.w3.org/2000/svg" xmlns:xlink="http://www.w3.org/1999/xlink" version="1.1" x="0px" y="0px" width="100px" height="100px" viewBox="0 0 100 100" xml:space="preserve"><g id="_x37_7_Essential_Icons"><path id="Trash" d="M81 23.5H61V17c0-1.1-.9-2-2-2H41c-1.1 0-2 .9-2 2v6.5H19c-1.1 0-2 .9-2 2s.9 2 2 2h6.6V83c0 1.1.9 2 2 2h44.8c1.1 0 2-.9 2-2V27.5H81c1.1 0 2-.9 2-2s-.9-2-2-2zM43 19h14v4H43v-4zm27.4 62H29.6V27.5h40.8V81zM61 38.3v32c0 1.1-.9 2-2 2s-2-.9-2-2v-32c0-1.1.9-2 2-2s2 .8 2 2zm-18 0v32c0 1.1-.9 2-2 2s-2-.9-2-2v-32c0-1.1.9-2 2-2s2 .8 2 2z"/></g><g id="Info"><path fill="#00F" d="M1364-930V754H-420V-930h1784m8-8H-428V762h1800V-938z" id="BORDER"/></g><metadata><rdf:RDF xmlns:rdf="http://www.w3.org/1999/02/22-rdf-syntax-ns#" xmlns:rdfs="http://www.w3.org/2000/01/rdf-schema#" xmlns:dc="http://purl.org/dc/elements/1.1/"><rdf:Description about="https://iconscout.com/legal#licenses" dc:title="essential,s,trash" dc:description="essential,s,trash" dc:publisher="Iconscout" dc:date="2017-09-15" dc:format="image/svg+xml" dc:language="en"><dc:creator><rdf:Bag><rdf:li>Bryn Taylor</rdf:li></rdf:Bag></dc:creator></rdf:Description></rdf:RDF></metadata></svg>